<svg xmlns="http://www.w3.org/2000/svg" xmlns:xlink="http://www.w3.org/1999/xlink" width="500" zoomAndPan="magnify" viewBox="0 0 375 374.999991" height="500" preserveAspectRatio="xMidYMid meet" version="1.0"><defs><g/><clipPath id="d6e7e5eadb"><path d="M 75.527344 69.363281 L 318.527344 69.363281 L 318.527344 312.363281 L 75.527344 312.363281 Z M 75.527344 69.363281 " clip-rule="nonzero"/></clipPath><clipPath id="b57ab287e5"><path d="M 270.632812 77.097656 L 318.632812 77.097656 L 318.632812 125.097656 L 270.632812 125.097656 Z M 270.632812 77.097656 " clip-rule="nonzero"/></clipPath></defs><g clip-path="url(#d6e7e5eadb)"><path fill="#efeae3" d="M 197.027344 69.363281 C 129.921875 69.363281 75.527344 123.761719 75.527344 190.863281 C 75.527344 257.964844 129.921875 312.363281 197.027344 312.363281 C 264.128906 312.363281 318.527344 257.964844 318.527344 190.863281 C 318.527344 123.761719 264.128906 69.363281 197.027344 69.363281 " fill-opacity="1" fill-rule="nonzero"/></g><g fill="#655446" fill-opacity="1"><g transform="translate(48.250622, 176.775153)"><g><path d="M 60.90625 -105 C 65 -105 68.867188 -104.171875 72.515625 -102.515625 C 76.171875 -100.867188 79.347656 -98.644531 82.046875 -95.84375 C 84.742188 -93.050781 86.867188 -89.726562 88.421875 -85.875 C 89.972656 -82.019531 90.75 -77.945312 90.75 -73.65625 C 90.75 -68.65625 89.898438 -64.253906 88.203125 -60.453125 C 86.503906 -56.648438 84.28125 -53.347656 81.53125 -50.546875 C 78.78125 -47.742188 75.65625 -45.394531 72.15625 -43.5 C 68.65625 -41.601562 65.101562 -40.003906 61.5 -38.703125 C 57.894531 -37.398438 54.367188 -36.375 50.921875 -35.625 C 47.472656 -34.875 44.445312 -34.300781 41.84375 -33.90625 C 45.644531 -35.90625 48.867188 -38.328125 51.515625 -41.171875 C 54.171875 -44.023438 56.320312 -47.175781 57.96875 -50.625 C 59.625 -54.070312 60.828125 -57.742188 61.578125 -61.640625 C 62.328125 -65.546875 62.703125 -69.550781 62.703125 -73.65625 C 62.703125 -77.851562 62.25 -81.847656 61.34375 -85.640625 C 60.445312 -89.441406 59.222656 -92.769531 57.671875 -95.625 C 56.117188 -98.476562 54.316406 -100.753906 52.265625 -102.453125 C 50.222656 -104.148438 48 -105 45.59375 -105 Z M 39.15625 -9.90625 C 39.15625 -7.40625 40.03125 -5.128906 41.78125 -3.078125 C 43.53125 -1.023438 45.703125 0 48.296875 0 L 3.75 0 C 6.25 0 8.375 -1.023438 10.125 -3.078125 C 11.875 -5.128906 12.75 -7.40625 12.75 -9.90625 L 12.75 -95.09375 C 12.75 -97.59375 11.875 -99.867188 10.125 -101.921875 C 8.375 -103.972656 6.25 -105 3.75 -105 L 39.15625 -105 Z M 39.15625 -9.90625 "/></g></g></g><g fill="#b67429" fill-opacity="1"><g transform="translate(154.261883, 228.499051)"><g><path d="M 81.90625 -28.953125 C 82.195312 -24.953125 81.394531 -21.222656 79.5 -17.765625 C 77.601562 -14.316406 74.90625 -11.289062 71.40625 -8.6875 C 67.90625 -6.09375 63.78125 -4.019531 59.03125 -2.46875 C 54.28125 -0.925781 49.300781 -0.101562 44.09375 0 C 45.894531 -0.195312 47.617188 -0.742188 49.265625 -1.640625 C 50.921875 -2.546875 52.398438 -3.671875 53.703125 -5.015625 C 55.003906 -6.367188 56.03125 -7.921875 56.78125 -9.671875 C 57.53125 -11.421875 57.90625 -13.25 57.90625 -15.15625 C 57.90625 -18.945312 56.578125 -22.539062 53.921875 -25.9375 C 51.273438 -29.34375 47.925781 -32.671875 43.875 -35.921875 C 39.820312 -39.171875 35.46875 -42.445312 30.8125 -45.75 C 26.164062 -49.050781 21.816406 -52.5 17.765625 -56.09375 C 13.722656 -59.695312 10.375 -63.5 7.71875 -67.5 C 5.070312 -71.5 3.75 -75.847656 3.75 -80.546875 C 3.75 -85.046875 4.972656 -88.84375 7.421875 -91.9375 C 9.867188 -95.039062 12.96875 -97.566406 16.71875 -99.515625 C 20.46875 -101.472656 24.566406 -102.875 29.015625 -103.71875 C 33.472656 -104.570312 37.75 -105 41.84375 -105 L 44.09375 -105 C 40.59375 -104.695312 37.492188 -103.394531 34.796875 -101.09375 C 32.097656 -98.800781 30.597656 -95.550781 30.296875 -91.34375 C 29.992188 -87.445312 31.019531 -83.847656 33.375 -80.546875 C 35.726562 -77.242188 38.726562 -74.066406 42.375 -71.015625 C 46.019531 -67.972656 50.066406 -64.953125 54.515625 -61.953125 C 58.972656 -58.953125 63.148438 -55.773438 67.046875 -52.421875 C 70.953125 -49.078125 74.300781 -45.503906 77.09375 -41.703125 C 79.894531 -37.898438 81.5 -33.648438 81.90625 -28.953125 Z M 75.15625 -76.65625 C 74.550781 -79.65625 73.472656 -82.703125 71.921875 -85.796875 C 70.367188 -88.898438 68.414062 -91.800781 66.0625 -94.5 C 63.71875 -97.195312 61.019531 -99.46875 57.96875 -101.3125 C 54.925781 -103.164062 51.601562 -104.296875 48 -104.703125 C 51.195312 -104.398438 54.21875 -104.023438 57.0625 -103.578125 C 59.914062 -103.128906 62.945312 -102.90625 66.15625 -102.90625 C 67.851562 -102.90625 69.523438 -103.050781 71.171875 -103.34375 C 72.828125 -103.644531 74.15625 -104.195312 75.15625 -105 Z M 27 -7.203125 C 27.300781 -5.503906 28.597656 -3.925781 30.890625 -2.46875 C 33.191406 -1.019531 36.445312 -0.195312 40.65625 0 C 35.550781 -0.195312 30.773438 -0.992188 26.328125 -2.390625 C 21.878906 -3.796875 17.976562 -5.648438 14.625 -7.953125 C 11.269531 -10.253906 8.617188 -12.925781 6.671875 -15.96875 C 4.722656 -19.019531 3.75 -22.347656 3.75 -25.953125 C 3.75 -28.148438 4.171875 -30.222656 5.015625 -32.171875 C 5.867188 -34.117188 7.019531 -35.816406 8.46875 -37.265625 C 9.925781 -38.722656 11.628906 -39.875 13.578125 -40.71875 C 15.523438 -41.570312 17.597656 -42 19.796875 -42 C 21.992188 -42 24.066406 -41.570312 26.015625 -40.71875 C 27.972656 -39.875 29.675781 -38.722656 31.125 -37.265625 C 32.570312 -35.816406 33.71875 -34.117188 34.5625 -32.171875 C 35.414062 -30.222656 35.84375 -28.148438 35.84375 -25.953125 C 35.84375 -23.753906 35.414062 -21.65625 34.5625 -19.65625 C 33.71875 -17.65625 32.597656 -15.953125 31.203125 -14.546875 C 29.597656 -12.847656 28.445312 -11.546875 27.75 -10.640625 C 27.050781 -9.742188 26.800781 -8.597656 27 -7.203125 Z M 27 -7.203125 "/></g></g></g><g clip-path="url(#b57ab287e5)"><path fill="#655446" d="M 294.632812 77.097656 C 281.378906 77.097656 270.632812 87.839844 270.632812 101.097656 C 270.632812 114.351562 281.378906 125.097656 294.632812 125.097656 C 307.886719 125.097656 318.632812 114.351562 318.632812 101.097656 C 318.632812 87.839844 307.886719 77.097656 294.632812 77.097656 " fill-opacity="1" fill-rule="nonzero"/></g><g fill="#42413f" fill-opacity="1"><g transform="translate(145.104092, 266.555051)"><g><path d="M 11.40625 -8.921875 C 11.40625 -7.710938 11.007812 -6.75 10.21875 -6.03125 C 9.425781 -5.320312 8.351562 -4.96875 7 -4.96875 L 3.25 -4.96875 L 3.25 0 L 1.515625 0 L 1.515625 -12.765625 L 6.890625 -12.765625 C 8.328125 -12.765625 9.4375 -12.429688 10.21875 -11.765625 C 11.007812 -11.097656 11.40625 -10.148438 11.40625 -8.921875 Z M 9.65625 -8.90625 C 9.65625 -10.5625 8.664062 -11.390625 6.6875 -11.390625 L 3.25 -11.390625 L 3.25 -6.34375 L 6.765625 -6.34375 C 8.691406 -6.34375 9.65625 -7.195312 9.65625 -8.90625 Z M 9.65625 -8.90625 "/></g></g></g><g fill="#42413f" fill-opacity="1"><g transform="translate(157.477317, 266.555051)"><g><path d="M 13.546875 -6.4375 C 13.546875 -5.101562 13.289062 -3.9375 12.78125 -2.9375 C 12.269531 -1.9375 11.535156 -1.164062 10.578125 -0.625 C 9.628906 -0.0820312 8.503906 0.1875 7.203125 0.1875 C 5.890625 0.1875 4.757812 -0.078125 3.8125 -0.609375 C 2.863281 -1.140625 2.132812 -1.910156 1.625 -2.921875 C 1.125 -3.929688 0.875 -5.101562 0.875 -6.4375 C 0.875 -8.488281 1.429688 -10.085938 2.546875 -11.234375 C 3.671875 -12.390625 5.226562 -12.96875 7.21875 -12.96875 C 8.519531 -12.96875 9.644531 -12.707031 10.59375 -12.1875 C 11.550781 -11.664062 12.28125 -10.910156 12.78125 -9.921875 C 13.289062 -8.941406 13.546875 -7.78125 13.546875 -6.4375 Z M 11.78125 -6.4375 C 11.78125 -8.03125 11.382812 -9.28125 10.59375 -10.1875 C 9.800781 -11.09375 8.675781 -11.546875 7.21875 -11.546875 C 5.757812 -11.546875 4.628906 -11.097656 3.828125 -10.203125 C 3.035156 -9.304688 2.640625 -8.050781 2.640625 -6.4375 C 2.640625 -4.84375 3.039062 -3.570312 3.84375 -2.625 C 4.65625 -1.6875 5.773438 -1.21875 7.203125 -1.21875 C 8.679688 -1.21875 9.8125 -1.671875 10.59375 -2.578125 C 11.382812 -3.492188 11.78125 -4.78125 11.78125 -6.4375 Z M 11.78125 -6.4375 "/></g></g></g><g fill="#42413f" fill-opacity="1"><g transform="translate(171.906714, 266.555051)"><g><path d="M 1.515625 0 L 1.515625 -12.765625 L 3.25 -12.765625 L 3.25 -1.40625 L 9.703125 -1.40625 L 9.703125 0 Z M 1.515625 0 "/></g></g></g><g fill="#42413f" fill-opacity="1"><g transform="translate(182.22378, 266.555051)"><g><path d="M 1.515625 0 L 1.515625 -12.765625 L 11.21875 -12.765625 L 11.21875 -11.359375 L 3.25 -11.359375 L 3.25 -7.265625 L 10.671875 -7.265625 L 10.671875 -5.859375 L 3.25 -5.859375 L 3.25 -1.40625 L 11.578125 -1.40625 L 11.578125 0 Z M 1.515625 0 "/></g></g></g><g fill="#42413f" fill-opacity="1"><g transform="translate(194.597005, 266.555051)"><g/></g></g><g fill="#b67429" fill-opacity="1"><g transform="translate(199.74862, 266.555051)"><g><path d="M 11.53125 -3.53125 C 11.53125 -2.351562 11.066406 -1.4375 10.140625 -0.78125 C 9.222656 -0.132812 7.925781 0.1875 6.25 0.1875 C 3.144531 0.1875 1.34375 -0.894531 0.84375 -3.0625 L 2.515625 -3.40625 C 2.710938 -2.632812 3.125 -2.066406 3.75 -1.703125 C 4.375 -1.347656 5.226562 -1.171875 6.3125 -1.171875 C 7.4375 -1.171875 8.300781 -1.363281 8.90625 -1.75 C 9.507812 -2.132812 9.8125 -2.695312 9.8125 -3.4375 C 9.8125 -3.851562 9.71875 -4.191406 9.53125 -4.453125 C 9.34375 -4.710938 9.078125 -4.925781 8.734375 -5.09375 C 8.390625 -5.257812 7.976562 -5.398438 7.5 -5.515625 C 7.019531 -5.628906 6.488281 -5.753906 5.90625 -5.890625 C 4.894531 -6.117188 4.128906 -6.34375 3.609375 -6.5625 C 3.085938 -6.78125 2.675781 -7.023438 2.375 -7.296875 C 2.070312 -7.578125 1.835938 -7.898438 1.671875 -8.265625 C 1.515625 -8.640625 1.4375 -9.066406 1.4375 -9.546875 C 1.4375 -10.640625 1.851562 -11.484375 2.6875 -12.078125 C 3.53125 -12.671875 4.734375 -12.96875 6.296875 -12.96875 C 7.742188 -12.96875 8.847656 -12.742188 9.609375 -12.296875 C 10.378906 -11.847656 10.921875 -11.09375 11.234375 -10.03125 L 9.53125 -9.71875 C 9.34375 -10.394531 8.984375 -10.882812 8.453125 -11.1875 C 7.929688 -11.5 7.203125 -11.65625 6.265625 -11.65625 C 5.242188 -11.65625 4.460938 -11.484375 3.921875 -11.140625 C 3.390625 -10.804688 3.125 -10.304688 3.125 -9.640625 C 3.125 -9.242188 3.226562 -8.914062 3.4375 -8.65625 C 3.644531 -8.40625 3.945312 -8.1875 4.34375 -8 C 4.738281 -7.820312 5.519531 -7.601562 6.6875 -7.34375 C 7.082031 -7.257812 7.472656 -7.171875 7.859375 -7.078125 C 8.253906 -6.984375 8.628906 -6.867188 8.984375 -6.734375 C 9.335938 -6.609375 9.671875 -6.457031 9.984375 -6.28125 C 10.296875 -6.101562 10.566406 -5.882812 10.796875 -5.625 C 11.023438 -5.375 11.203125 -5.078125 11.328125 -4.734375 C 11.460938 -4.390625 11.53125 -3.988281 11.53125 -3.53125 Z M 11.53125 -3.53125 "/></g></g></g><g fill="#b67429" fill-opacity="1"><g transform="translate(212.121845, 266.555051)"><g><path d="M 6.53125 -11.359375 L 6.53125 0 L 4.796875 0 L 4.796875 -11.359375 L 0.421875 -11.359375 L 0.421875 -12.765625 L 10.90625 -12.765625 L 10.90625 -11.359375 Z M 6.53125 -11.359375 "/></g></g></g><g fill="#b67429" fill-opacity="1"><g transform="translate(223.453406, 266.555051)"><g><path d="M 10.578125 0 L 9.125 -3.734375 L 3.296875 -3.734375 L 1.828125 0 L 0.03125 0 L 5.25 -12.765625 L 7.21875 -12.765625 L 12.34375 0 Z M 6.203125 -11.46875 L 6.125 -11.21875 C 5.976562 -10.707031 5.753906 -10.0625 5.453125 -9.28125 L 3.828125 -5.078125 L 8.59375 -5.078125 L 6.96875 -9.296875 C 6.789062 -9.710938 6.617188 -10.1875 6.453125 -10.71875 Z M 6.203125 -11.46875 "/></g></g></g><g fill="#b67429" fill-opacity="1"><g transform="translate(235.826632, 266.555051)"><g><path d="M 10.546875 0 L 7.234375 -5.296875 L 3.25 -5.296875 L 3.25 0 L 1.515625 0 L 1.515625 -12.765625 L 7.53125 -12.765625 C 8.96875 -12.765625 10.078125 -12.441406 10.859375 -11.796875 C 11.640625 -11.160156 12.03125 -10.269531 12.03125 -9.125 C 12.03125 -8.164062 11.753906 -7.363281 11.203125 -6.71875 C 10.648438 -6.070312 9.890625 -5.664062 8.921875 -5.5 L 12.546875 0 Z M 10.296875 -9.09375 C 10.296875 -9.84375 10.039062 -10.410156 9.53125 -10.796875 C 9.03125 -11.191406 8.304688 -11.390625 7.359375 -11.390625 L 3.25 -11.390625 L 3.25 -6.671875 L 7.4375 -6.671875 C 8.34375 -6.671875 9.046875 -6.882812 9.546875 -7.3125 C 10.046875 -7.738281 10.296875 -8.332031 10.296875 -9.09375 Z M 10.296875 -9.09375 "/></g></g></g><g fill="#655446" fill-opacity="1"><g transform="translate(256.644626, 274.399273)"><g><path d="M 39.15625 -104.09375 L 39.15625 0 L 3.75 0 C 6.25 0 8.375 -1.023438 10.125 -3.078125 C 11.875 -5.128906 12.75 -7.40625 12.75 -9.90625 L 12.75 -95.09375 C 12.75 -97.59375 11.875 -99.867188 10.125 -101.921875 C 8.375 -103.972656 6.25 -105 3.75 -105 L 39.15625 -105 Z M 40.65625 -105 L 77.09375 -105 L 77.09375 -76.65625 C 76.09375 -80.550781 74.414062 -84.222656 72.0625 -87.671875 C 69.71875 -91.117188 66.945312 -94.117188 63.75 -96.671875 C 60.550781 -99.222656 56.972656 -101.25 53.015625 -102.75 C 49.066406 -104.25 44.945312 -105 40.65625 -105 Z M 40.65625 0 C 44.945312 0 49.066406 -0.722656 53.015625 -2.171875 C 56.972656 -3.617188 60.550781 -5.617188 63.75 -8.171875 C 66.945312 -10.722656 69.71875 -13.722656 72.0625 -17.171875 C 74.414062 -20.617188 76.09375 -24.296875 77.09375 -28.203125 L 77.09375 0 Z M 39.15625 -52.5 C 41.851562 -52.5 44.5 -52.023438 47.09375 -51.078125 C 49.695312 -50.128906 52.046875 -48.851562 54.140625 -47.25 C 56.242188 -45.644531 58.046875 -43.742188 59.546875 -41.546875 C 61.046875 -39.347656 62.144531 -37 62.84375 -34.5 L 62.84375 -70.5 C 62.144531 -68 61.046875 -65.648438 59.546875 -63.453125 C 58.046875 -61.253906 56.242188 -59.351562 54.140625 -57.75 C 52.046875 -56.144531 49.695312 -54.867188 47.09375 -53.921875 C 44.5 -52.972656 41.851562 -52.5 39.15625 -52.5 Z M 39.15625 -52.5 "/></g></g></g><g fill="#42413f" fill-opacity="1"><g transform="translate(151.301348, 281.549074)"><g><path d="M 1.0625 0 L 1.0625 -8.9375 L 7.859375 -8.9375 L 7.859375 -7.953125 L 2.28125 -7.953125 L 2.28125 -5.078125 L 7.46875 -5.078125 L 7.46875 -4.109375 L 2.28125 -4.109375 L 2.28125 -0.984375 L 8.109375 -0.984375 L 8.109375 0 Z M 1.0625 0 "/></g></g></g><g fill="#42413f" fill-opacity="1"><g transform="translate(159.96964, 281.549074)"><g><path d="M 6.875 0 L 2.078125 -7.625 L 2.109375 -7 L 2.140625 -5.9375 L 2.140625 0 L 1.0625 0 L 1.0625 -8.9375 L 2.46875 -8.9375 L 7.3125 -1.28125 C 7.257812 -2.101562 7.234375 -2.703125 7.234375 -3.078125 L 7.234375 -8.9375 L 8.328125 -8.9375 L 8.328125 0 Z M 6.875 0 "/></g></g></g><g fill="#42413f" fill-opacity="1"><g transform="translate(169.355008, 281.549074)"><g><path d="M 4.578125 -7.953125 L 4.578125 0 L 3.359375 0 L 3.359375 -7.953125 L 0.296875 -7.953125 L 0.296875 -8.9375 L 7.640625 -8.9375 L 7.640625 -7.953125 Z M 4.578125 -7.953125 "/></g></g></g><g fill="#42413f" fill-opacity="1"><g transform="translate(177.293545, 281.549074)"><g><path d="M 1.0625 0 L 1.0625 -8.9375 L 7.859375 -8.9375 L 7.859375 -7.953125 L 2.28125 -7.953125 L 2.28125 -5.078125 L 7.46875 -5.078125 L 7.46875 -4.109375 L 2.28125 -4.109375 L 2.28125 -0.984375 L 8.109375 -0.984375 L 8.109375 0 Z M 1.0625 0 "/></g></g></g><g fill="#42413f" fill-opacity="1"><g transform="translate(185.961837, 281.549074)"><g><path d="M 7.390625 0 L 5.0625 -3.71875 L 2.28125 -3.71875 L 2.28125 0 L 1.0625 0 L 1.0625 -8.9375 L 5.28125 -8.9375 C 6.28125 -8.9375 7.054688 -8.710938 7.609375 -8.265625 C 8.160156 -7.816406 8.4375 -7.191406 8.4375 -6.390625 C 8.4375 -5.722656 8.238281 -5.160156 7.84375 -4.703125 C 7.457031 -4.253906 6.925781 -3.972656 6.25 -3.859375 L 8.78125 0 Z M 7.21875 -6.375 C 7.21875 -6.894531 7.039062 -7.289062 6.6875 -7.5625 C 6.332031 -7.832031 5.820312 -7.96875 5.15625 -7.96875 L 2.28125 -7.96875 L 2.28125 -4.671875 L 5.203125 -4.671875 C 5.835938 -4.671875 6.332031 -4.816406 6.6875 -5.109375 C 7.039062 -5.410156 7.21875 -5.832031 7.21875 -6.375 Z M 7.21875 -6.375 "/></g></g></g><g fill="#42413f" fill-opacity="1"><g transform="translate(195.347205, 281.549074)"><g><path d="M 7.984375 -6.25 C 7.984375 -5.40625 7.707031 -4.734375 7.15625 -4.234375 C 6.601562 -3.734375 5.851562 -3.484375 4.90625 -3.484375 L 2.28125 -3.484375 L 2.28125 0 L 1.0625 0 L 1.0625 -8.9375 L 4.828125 -8.9375 C 5.828125 -8.9375 6.601562 -8.703125 7.15625 -8.234375 C 7.707031 -7.765625 7.984375 -7.101562 7.984375 -6.25 Z M 6.765625 -6.234375 C 6.765625 -7.390625 6.070312 -7.96875 4.6875 -7.96875 L 2.28125 -7.96875 L 2.28125 -4.4375 L 4.734375 -4.4375 C 6.085938 -4.4375 6.765625 -5.035156 6.765625 -6.234375 Z M 6.765625 -6.234375 "/></g></g></g><g fill="#42413f" fill-opacity="1"><g transform="translate(204.015498, 281.549074)"><g><path d="M 7.390625 0 L 5.0625 -3.71875 L 2.28125 -3.71875 L 2.28125 0 L 1.0625 0 L 1.0625 -8.9375 L 5.28125 -8.9375 C 6.28125 -8.9375 7.054688 -8.710938 7.609375 -8.265625 C 8.160156 -7.816406 8.4375 -7.191406 8.4375 -6.390625 C 8.4375 -5.722656 8.238281 -5.160156 7.84375 -4.703125 C 7.457031 -4.253906 6.925781 -3.972656 6.25 -3.859375 L 8.78125 0 Z M 7.21875 -6.375 C 7.21875 -6.894531 7.039062 -7.289062 6.6875 -7.5625 C 6.332031 -7.832031 5.820312 -7.96875 5.15625 -7.96875 L 2.28125 -7.96875 L 2.28125 -4.671875 L 5.203125 -4.671875 C 5.835938 -4.671875 6.332031 -4.816406 6.6875 -5.109375 C 7.039062 -5.410156 7.21875 -5.832031 7.21875 -6.375 Z M 7.21875 -6.375 "/></g></g></g><g fill="#42413f" fill-opacity="1"><g transform="translate(213.400865, 281.549074)"><g><path d="M 1.203125 0 L 1.203125 -8.9375 L 2.40625 -8.9375 L 2.40625 0 Z M 1.203125 0 "/></g></g></g><g fill="#42413f" fill-opacity="1"><g transform="translate(217.011602, 281.549074)"><g><path d="M 8.078125 -2.46875 C 8.078125 -1.644531 7.753906 -1.003906 7.109375 -0.546875 C 6.460938 -0.0976562 5.550781 0.125 4.375 0.125 C 2.195312 0.125 0.9375 -0.628906 0.59375 -2.140625 L 1.765625 -2.375 C 1.898438 -1.84375 2.1875 -1.445312 2.625 -1.1875 C 3.0625 -0.9375 3.660156 -0.8125 4.421875 -0.8125 C 5.203125 -0.8125 5.804688 -0.945312 6.234375 -1.21875 C 6.660156 -1.488281 6.875 -1.882812 6.875 -2.40625 C 6.875 -2.695312 6.804688 -2.929688 6.671875 -3.109375 C 6.535156 -3.296875 6.347656 -3.445312 6.109375 -3.5625 C 5.867188 -3.6875 5.582031 -3.785156 5.25 -3.859375 C 4.914062 -3.941406 4.546875 -4.03125 4.140625 -4.125 C 3.429688 -4.28125 2.894531 -4.4375 2.53125 -4.59375 C 2.164062 -4.75 1.875 -4.921875 1.65625 -5.109375 C 1.445312 -5.304688 1.285156 -5.535156 1.171875 -5.796875 C 1.066406 -6.054688 1.015625 -6.351562 1.015625 -6.6875 C 1.015625 -7.445312 1.304688 -8.035156 1.890625 -8.453125 C 2.472656 -8.867188 3.3125 -9.078125 4.40625 -9.078125 C 5.414062 -9.078125 6.191406 -8.921875 6.734375 -8.609375 C 7.273438 -8.296875 7.648438 -7.765625 7.859375 -7.015625 L 6.671875 -6.8125 C 6.535156 -7.28125 6.285156 -7.617188 5.921875 -7.828125 C 5.554688 -8.046875 5.046875 -8.15625 4.390625 -8.15625 C 3.671875 -8.15625 3.125 -8.035156 2.75 -7.796875 C 2.375 -7.566406 2.1875 -7.21875 2.1875 -6.75 C 2.1875 -6.46875 2.257812 -6.238281 2.40625 -6.0625 C 2.550781 -5.882812 2.757812 -5.734375 3.03125 -5.609375 C 3.3125 -5.484375 3.863281 -5.328125 4.6875 -5.140625 C 4.957031 -5.078125 5.226562 -5.015625 5.5 -4.953125 C 5.78125 -4.890625 6.046875 -4.8125 6.296875 -4.71875 C 6.546875 -4.625 6.773438 -4.515625 6.984375 -4.390625 C 7.203125 -4.273438 7.390625 -4.128906 7.546875 -3.953125 C 7.710938 -3.773438 7.84375 -3.5625 7.9375 -3.3125 C 8.03125 -3.070312 8.078125 -2.789062 8.078125 -2.46875 Z M 8.078125 -2.46875 "/></g></g></g><g fill="#42413f" fill-opacity="1"><g transform="translate(225.679894, 281.549074)"><g><path d="M 1.0625 0 L 1.0625 -8.9375 L 7.859375 -8.9375 L 7.859375 -7.953125 L 2.28125 -7.953125 L 2.28125 -5.078125 L 7.46875 -5.078125 L 7.46875 -4.109375 L 2.28125 -4.109375 L 2.28125 -0.984375 L 8.109375 -0.984375 L 8.109375 0 Z M 1.0625 0 "/></g></g></g><g fill="#42413f" fill-opacity="1"><g transform="translate(234.348187, 281.549074)"><g><path d="M 8.078125 -2.46875 C 8.078125 -1.644531 7.753906 -1.003906 7.109375 -0.546875 C 6.460938 -0.0976562 5.550781 0.125 4.375 0.125 C 2.195312 0.125 0.9375 -0.628906 0.59375 -2.140625 L 1.765625 -2.375 C 1.898438 -1.84375 2.1875 -1.445312 2.625 -1.1875 C 3.0625 -0.9375 3.660156 -0.8125 4.421875 -0.8125 C 5.203125 -0.8125 5.804688 -0.945312 6.234375 -1.21875 C 6.660156 -1.488281 6.875 -1.882812 6.875 -2.40625 C 6.875 -2.695312 6.804688 -2.929688 6.671875 -3.109375 C 6.535156 -3.296875 6.347656 -3.445312 6.109375 -3.5625 C 5.867188 -3.6875 5.582031 -3.785156 5.25 -3.859375 C 4.914062 -3.941406 4.546875 -4.03125 4.140625 -4.125 C 3.429688 -4.28125 2.894531 -4.4375 2.53125 -4.59375 C 2.164062 -4.75 1.875 -4.921875 1.65625 -5.109375 C 1.445312 -5.304688 1.285156 -5.535156 1.171875 -5.796875 C 1.066406 -6.054688 1.015625 -6.351562 1.015625 -6.6875 C 1.015625 -7.445312 1.304688 -8.035156 1.890625 -8.453125 C 2.472656 -8.867188 3.3125 -9.078125 4.40625 -9.078125 C 5.414062 -9.078125 6.191406 -8.921875 6.734375 -8.609375 C 7.273438 -8.296875 7.648438 -7.765625 7.859375 -7.015625 L 6.671875 -6.8125 C 6.535156 -7.28125 6.285156 -7.617188 5.921875 -7.828125 C 5.554688 -8.046875 5.046875 -8.15625 4.390625 -8.15625 C 3.671875 -8.15625 3.125 -8.035156 2.75 -7.796875 C 2.375 -7.566406 2.1875 -7.21875 2.1875 -6.75 C 2.1875 -6.46875 2.257812 -6.238281 2.40625 -6.0625 C 2.550781 -5.882812 2.757812 -5.734375 3.03125 -5.609375 C 3.3125 -5.484375 3.863281 -5.328125 4.6875 -5.140625 C 4.957031 -5.078125 5.226562 -5.015625 5.5 -4.953125 C 5.78125 -4.890625 6.046875 -4.8125 6.296875 -4.71875 C 6.546875 -4.625 6.773438 -4.515625 6.984375 -4.390625 C 7.203125 -4.273438 7.390625 -4.128906 7.546875 -3.953125 C 7.710938 -3.773438 7.84375 -3.5625 7.9375 -3.3125 C 8.03125 -3.070312 8.078125 -2.789062 8.078125 -2.46875 Z M 8.078125 -2.46875 "/></g></g></g></svg>